<?xml version="1.0" encoding="utf-8"?>
<svg viewBox="0 0 200 200" xmlns="http://www.w3.org/2000/svg" xmlns:bx="https://boxy-svg.com">
  <rect width="200" height="200" style="fill: rgb(37, 39, 15);"/>
  <path d="M 99.316 2.572 L 177.428 41.046 C 177.428 83.796 151.391 135.097 99.316 194.946 C 47.242 135.097 21.205 83.796 21.205 41.046 L 99.316 2.572 Z" fill="none" stroke-width="3" style="stroke: rgb(166, 161, 5);" id="object-0"/>
  <path d="M 99.316 15.396 L 164.41 47.459 C 164.41 81.659 142.713 124.409 99.316 175.709 C 55.921 124.409 34.222 81.659 34.222 47.459 L 99.316 15.396 Z" fill="#1A3A47" opacity="0.8" style="" id="object-1"/>
  <text transform="matrix(1.562239, 0, 0, 1.282501, -56.959393, -23.078467)" style="fill: rgb(255, 255, 255); font-family: Arial, sans-serif; font-size: 14.5px; font-weight: 700; text-anchor: middle; white-space: pre;" id="object-2" x="100" y="58">Health</text>
  <text transform="matrix(1.562239, 0, 0, 1.282501, -56.959393, -23.078467)" style="fill: rgb(255, 255, 255); font-family: Arial, sans-serif; font-size: 14.5px; font-weight: 700; text-anchor: middle; white-space: pre;" id="object-3" x="100" y="72">Sentinel</text>
  <path d="M 47.242 117.997 L 66.769 117.997 L 73.279 98.759 L 79.789 137.233 L 86.299 79.522 L 92.807 156.472 L 99.316 117.997 L 105.826 98.759 L 112.336 137.233 L 118.844 111.585 L 125.354 124.409 L 151.391 117.997" fill="none" stroke-width="2.5" stroke-linecap="round" style="stroke: rgb(166, 161, 5);" id="object-4"/>
  <defs>
    <mask id="radarMask">
      <path d="M100 20 L160 50 Q160 100 100 170 Q40 100 40 50 Z" fill="white"/>
    </mask>
    <bx:export>
      <bx:file format="svg" href="#object-0"/>
      <bx:file format="svg" href="#object-1" path="Untitled 2.svg"/>
      <bx:file format="svg" href="#object-2" path="Untitled 3.svg"/>
      <bx:file format="svg" href="#object-3" path="Untitled 4.svg"/>
      <bx:file format="svg" href="#object-4" path="Untitled 5.svg"/>
      <bx:file format="svg" href="#object-5" path="Untitled 6.svg"/>
    </bx:export>
  </defs>
  <g mask="url(#radarMask)" style="" transform="matrix(1.301866, 0, 0, 1.282501, -30.870007, -23.078467)" id="object-5">
    <path d="M100 110 L100 30 A70 70 0 0 1 140 60 Z" fill="url(#radarGradient)" opacity="0.4">
      <animateTransform attributeName="transform" type="rotate" values="0 100 110;360 100 110" dur="4s" repeatCount="indefinite"/>
    </path>
  </g>
  <defs>
    <linearGradient id="radarGradient" x1="0%" y1="0%" x2="100%" y2="100%">
      <stop offset="0" style="stop-color:#00D4AA;stop-opacity:0.8"/>
      <stop offset="1" style="stop-color:#00D4AA;stop-opacity:0"/>
    </linearGradient>
  </defs>
</svg>