<?xml version="1.0" encoding="utf-8"?>
<svg viewBox="0 0 200 200" xmlns="http://www.w3.org/2000/svg">
  <defs>
    <mask id="shieldMask">
      <rect width="200" height="200" fill="black"/>
      <path d="M100 2 L198 39.5 Q198 100 100 198 Q2 100 2 39.5 Z" fill="white"/>
    </mask>
  </defs>
  <rect width="200" height="200" fill="#0F2027" mask="url(#shieldMask)"/>
  <path d="M100 12 L185 46 Q185 95 100 185 Q15 95 15 46 Z" fill="#1A3A47" opacity="0.8"/>
  <text transform="matrix(1.2, 0, 0, 1, -20.040001, -7.859905)" style="fill: rgb(255, 255, 255); font-family: Arial, sans-serif; font-size: 27px; text-anchor: middle; white-space: pre;" x="100" y="58">Health</text>
  <text transform="matrix(1.2, 0, 0, 1, -20.040001, -3.0756)" style="fill: rgb(255, 255, 255); font-family: Arial, sans-serif; font-size: 27px; text-anchor: middle; white-space: pre;" x="100" y="78">Sentinel</text>
  <path d="M 38.633 125 L 54.06 125 L 61.26 105 L 68.459 145 L 77.715 85 L 86.971 165 L 100.342 125 L 113.712 105 L 122.968 145 L 132.225 118 L 141.481 132 L 162.05 125" fill="none" stroke-width="3.3" stroke-linecap="round" style="stroke: rgb(190, 7, 0);"/>
  <defs>
    <mask id="radarMask">
      <path d="M100 2 L198 39.5 Q198 100 100 198 Q2 100 2 39.5 Z" fill="white"/>
    </mask>
  </defs>
  <g mask="url(#radarMask)">
    <path d="M100 125 L100 12 A92 92 0 0 1 152 47 Z" fill="url(#radarGradient)" opacity="0.4">
      <animateTransform attributeName="transform" type="rotate" values="0 100 125;360 100 125" dur="4s" repeatCount="indefinite"/>
    </path>
  </g>
  <path d="M100 2 L198 39.5 Q198 100 100 198 Q2 100 2 39.5 Z" fill="none" stroke-width="3" style="stroke: rgb(166, 161, 5);"/>
  <defs>
    <linearGradient id="radarGradient" x1="0%" y1="0%" x2="100%" y2="100%">
      <stop offset="0" style="stop-color:#00D4AA;stop-opacity:0.8"/>
      <stop offset="1" style="stop-color:#00D4AA;stop-opacity:0"/>
    </linearGradient>
  </defs>
</svg>
